<svg xmlns="http://www.w3.org/2000/svg" viewBox="0 0 800 600" role="img" aria-label="Students creating educational resources together">
  <defs>
    <linearGradient id="bg" x1="0%" y1="0%" x2="100%" y2="100%">
      <stop offset="0%" stop-color="#e8f2fc"/>
      <stop offset="100%" stop-color="#e8f5ef"/>
    </linearGradient>
    <linearGradient id="book" x1="0%" y1="0%" x2="0%" y2="100%">
      <stop offset="0%" stop-color="#2a7d6e"/>
      <stop offset="100%" stop-color="#1f6357"/>
    </linearGradient>
  </defs>
  <rect width="800" height="600" fill="url(#bg)" rx="24"/>
  <rect x="80" y="380" width="640" height="12" rx="6" fill="#d4e3ea"/>
  <rect x="120" y="200" width="180" height="220" rx="12" fill="url(#book)"/>
  <rect x="140" y="220" width="140" height="8" rx="4" fill="#fff" opacity="0.7"/>
  <rect x="140" y="250" width="120" height="6" rx="3" fill="#fff" opacity="0.5"/>
  <rect x="140" y="270" width="130" height="6" rx="3" fill="#fff" opacity="0.5"/>
  <rect x="310" y="160" width="200" height="260" rx="12" fill="#2b6cb0"/>
  <rect x="330" y="190" width="160" height="8" rx="4" fill="#fff" opacity="0.7"/>
  <rect x="330" y="220" width="140" height="6" rx="3" fill="#fff" opacity="0.5"/>
  <rect x="330" y="240" width="150" height="6" rx="3" fill="#fff" opacity="0.5"/>
  <rect x="530" y="220" width="160" height="200" rx="12" fill="#e07a3a"/>
  <rect x="550" y="250" width="120" height="8" rx="4" fill="#fff" opacity="0.7"/>
  <rect x="550" y="280" width="100" height="6" rx="3" fill="#fff" opacity="0.5"/>
  <circle cx="200" cy="140" r="50" fill="#f4b942"/>
  <circle cx="420" cy="100" r="45" fill="#f4b942"/>
  <circle cx="600" cy="150" r="42" fill="#f4b942"/>
  <rect x="170" y="175" width="60" height="50" rx="20" fill="#fef3eb"/>
  <rect x="390" y="135" width="60" height="50" rx="20" fill="#fef3eb"/>
  <rect x="570" y="185" width="60" height="50" rx="20" fill="#fef3eb"/>
  <text x="400" y="520" text-anchor="middle" font-family="system-ui,sans-serif" font-size="18" fill="#5a6f78">Students creating free learning resources</text>
</svg>
